<svg xmlns="http://www.w3.org/2000/svg" viewBox="0 0 1000 1000"><path d="M500 235.58c-140.63 0-254.62 112.82-254.62 252 0 125.8 93.15 230.05 214.91 248.93C378.44 716.35 317 631.55 317 530c0-116.6 80.92-211.13 180.75-211.13S678.5 413.35 678.5 530c0 104.32-64.79 190.91-149.93 208 127.17-14.1 226.06-120.81 226.06-250.42 0-139.18-114-252-254.63-252Z"/><path d="M498.5 367.58c-78.7 0-142.5 63.3-142.5 141.42 0 64.71 43.85 119.23 103.66 136C421.8 629.23 395 590.6 395 545.33c0-59.23 45.83-107.25 102.38-107.25s102.38 48 102.38 107.25c0 47-28.92 86.86-69.1 101.34C593.86 632.2 641 576.06 641 509c0-78.12-63.8-141.42-142.5-141.42Z"/><circle cx="492.5" cy="575.33" r="42.75"/><path d="M626.75 624.83 329 227.33c2.45-6.68 3.1-15 3-24l-96.75 96 46.6-18.78a5.91 5.91 0 0 1 6.41 1.33Z"/></svg>